<svg width="619" height="620" viewBox="0 0 619 620" fill="none" xmlns="http://www.w3.org/2000/svg">
<g filter="url(#filter0_d_502_5790)">
<path d="M4 20C4 8.9543 12.9543 0 24 0H595C606.046 0 615 8.95431 615 20V592C615 603.046 606.046 612 595 612H24C12.9543 612 4 603.046 4 592V20Z" fill="#041C12"/>
<path d="M5 20C5 9.50659 13.5066 1 24 1H595C605.493 1 614 9.50659 614 20V592C614 602.493 605.493 611 595 611H24C13.5066 611 5 602.493 5 592V20Z" stroke="#041C12" stroke-width="2"/>
</g>
<defs>
<filter id="filter0_d_502_5790" x="0" y="0" width="619" height="620" filterUnits="userSpaceOnUse" color-interpolation-filters="sRGB">
<feFlood flood-opacity="0" result="BackgroundImageFix"/>
<feColorMatrix in="SourceAlpha" type="matrix" values="0 0 0 0 0 0 0 0 0 0 0 0 0 0 0 0 0 0 127 0" result="hardAlpha"/>
<feOffset dy="4"/>
<feGaussianBlur stdDeviation="2"/>
<feComposite in2="hardAlpha" operator="out"/>
<feColorMatrix type="matrix" values="0 0 0 0 0 0 0 0 0 0 0 0 0 0 0 0 0 0 0.25 0"/>
<feBlend mode="normal" in2="BackgroundImageFix" result="effect1_dropShadow_502_5790"/>
<feBlend mode="normal" in="SourceGraphic" in2="effect1_dropShadow_502_5790" result="shape"/>
</filter>
</defs>
</svg>
