<svg width="63" height="21" viewBox="0 0 63 21" fill="none" xmlns="http://www.w3.org/2000/svg">
<path d="M10.7252 0C9.25739 0 7.80525 0.322285 6.47188 0.939997C5.13851 1.55771 3.95529 2.45518 3.00288 3.57423C2.17821 4.40456 1.56195 5.41841 1.21012 6.53298C1.10927 6.88212 1.05101 7.24022 1.03532 7.60279L4.06285 8.77331C4.2242 8.38612 4.3497 8.07055 4.48191 7.75945C4.8696 6.84631 5.45001 6.02717 6.1828 5.35575C7.42877 4.20761 9.06691 3.57647 10.7611 3.59213C11.7023 3.60108 12.63 3.80699 13.4861 4.19865C14.3421 4.59032 15.1063 5.15879 15.7293 5.86379C15.9242 6.10327 16.0901 6.36736 16.22 6.64712C16.3545 6.56655 16.4822 6.47927 16.6032 6.38303L17.3002 5.98912L16.7624 10.3221L13.0312 8.7375L12.7757 8.63007L13.3763 8.26526L13.1118 7.99221C12.4776 7.35883 11.6194 7.00298 10.723 7.00074C9.80418 7.01193 8.92797 7.38569 8.28706 8.04145C7.64614 8.69721 7.28983 9.5835 7.30104 10.5011C7.28983 11.4187 7.64614 12.305 8.28706 12.9608C8.92797 13.6165 9.80642 13.9925 10.723 14.0015C11.0434 14.0015 11.3639 13.9545 11.6731 13.8627C12.3253 13.6702 12.9057 13.2853 13.3382 12.7593C13.4659 12.6564 13.6295 12.6049 13.7931 12.6206C14.7522 12.9071 15.6732 13.3189 16.61 13.6859C15.7024 15.9397 13.2665 17.428 10.6513 17.4437C10.4765 17.4437 10.3017 17.4392 10.1269 17.428C7.47135 17.2445 4.99509 15.2391 4.34073 12.7056L5.20798 12.1327L0.826913 10.3265C0.728311 10.8547 0.634191 11.3673 0.54007 11.8753C0.360794 12.8399 0.185999 13.7866 0 14.7826L1.08014 14.3752C2.25664 17.0028 3.98442 18.7462 5.90492 19.778C5.98335 19.8205 6.05955 19.863 6.14022 19.9011C6.15591 19.91 6.17607 19.919 6.19176 19.9279C6.29036 19.9772 6.38897 20.0264 6.48757 20.0712C6.59737 20.1204 6.70718 20.1697 6.81923 20.2144L6.98506 20.2816C8.17501 20.7583 9.44339 21.0022 10.7252 21C16.3993 21 21 16.2978 21 10.4989C21 4.69999 16.3993 0 10.7252 0Z" fill="white"/>
<path d="M32.0549 11.7672C32.0549 8.47602 27.0625 9.52038 27.0625 7.64765C27.0625 6.88609 27.6346 6.52312 28.4019 6.54985C29.239 6.56321 29.7552 7.04419 29.7971 7.66101H31.9457C31.8201 5.97533 30.4528 5 28.46 5C26.4673 5 25.0302 6.01542 25.0302 7.7011C25.0163 11.0858 30.0366 9.86776 30.0366 11.8875C30.0366 12.5555 29.4925 13.0254 28.5717 13.0254C27.6508 13.0254 27.1486 12.531 27.0928 11.7806H25C25.0279 13.5464 26.5905 14.5618 28.6112 14.5618C30.8295 14.5618 32.0549 13.2369 32.0549 11.7672ZM35.1499 14.4683H37.2706L38.6797 9.29325L40.0889 14.4683H42.1956L44.4534 7.05978H42.5839L41.2189 12.6913L39.768 7.05978H37.7031L36.2242 12.7047L34.8569 7.05978H32.8758L35.1499 14.4683ZM45.0092 10.7362C45.0092 13.0498 46.5718 14.5886 48.525 14.5886C49.0226 14.6041 49.5179 14.5017 49.9644 14.2924C50.4108 14.0831 50.7992 13.7713 51.0922 13.3839V14.4661H53.0594V7.05978H51.0922V8.11528C50.7968 7.73672 50.4108 7.43165 49.9667 7.22679C49.5226 7.02192 49.0343 6.92395 48.5413 6.93953C46.5741 6.93953 45.0115 8.4248 45.0115 10.7384L45.0092 10.7362ZM51.0898 10.7629C51.0898 12.168 50.1132 12.943 49.0389 12.943C47.9646 12.943 47.002 12.1413 47.002 10.7362C47.002 9.33111 47.9925 8.5829 49.0389 8.5829C50.1132 8.5829 51.0898 9.35783 51.0898 10.7629ZM56.9217 8.12864V7.05978H54.9684V18H56.9217V13.4128C57.2216 13.7869 57.61 14.0875 58.0518 14.2924C58.4959 14.4973 58.9819 14.5997 59.4725 14.5908C61.4537 14.5908 63 13.0521 63 10.7384C63 8.4248 61.4537 6.93953 59.4725 6.93953C58.9796 6.9284 58.4889 7.02861 58.0448 7.2357C57.6007 7.44279 57.2147 7.75009 56.9194 8.12864H56.9217ZM61.0072 10.7362C61.0072 12.1413 60.0166 12.943 58.9563 12.943C57.896 12.943 56.9194 12.168 56.9194 10.7629C56.9194 9.35783 57.9076 8.5829 58.954 8.5829C60.0004 8.5829 61.0049 9.33111 61.0049 10.7362H61.0072Z" fill="white"/>
</svg>
