<svg width="307" height="192" viewBox="0 0 307 192" fill="none" xmlns="http://www.w3.org/2000/svg">
<g filter="url(#filter0_d_570_9290)">
<circle cx="99.9896" cy="96.9896" r="83.9896" fill="url(#paint0_linear_570_9290)"/>
<circle cx="99.9896" cy="96.9896" r="83.9896" stroke="url(#paint1_linear_570_9290)" stroke-width="1.5" stroke-miterlimit="10"/>
</g>
<g filter="url(#filter1_d_570_9290)">
<path d="M100.404 148.708C129.195 148.708 152.535 125.368 152.535 96.5763C152.535 67.7849 129.195 44.4448 100.404 44.4448C71.6125 44.4448 48.2725 67.7849 48.2725 96.5763C48.2725 125.368 71.6125 148.708 100.404 148.708Z" fill="#E50571"/>
<path fill-rule="evenodd" clip-rule="evenodd" d="M122.346 105.88H91.6425V88.7581H86.9066V108.26C86.9059 108.57 86.9673 108.877 87.0872 109.163C87.2089 109.447 87.3847 109.705 87.6049 109.921C88.0491 110.362 88.6489 110.61 89.2745 110.612H116.165L110.614 115.608H80.8221V87.2651H111.529C112.114 87.2664 112.677 87.0504 113.111 86.6591L123.927 76.9544C124.283 76.6348 124.533 76.215 124.646 75.7503C124.729 75.4027 124.732 75.0407 124.655 74.6917C124.578 74.3426 124.423 74.0154 124.202 73.7347C123.981 73.454 123.699 73.227 123.377 73.0707C123.056 72.9145 122.703 72.833 122.346 72.8325H89.2745C88.9638 72.8325 88.656 72.8938 88.369 73.0128C88.0819 73.1319 87.8211 73.3064 87.6016 73.5263C87.382 73.7463 87.2079 74.0073 87.0894 74.2946C86.9708 74.5819 86.9101 74.8897 86.9106 75.2005V81.0442H91.6425V77.5404H116.173L110.622 82.5372H78.4581C78.1445 82.5348 77.8335 82.595 77.5434 82.7142C77.2533 82.8334 76.9898 83.0093 76.7685 83.2315C76.5476 83.4501 76.3729 83.7107 76.2547 83.9981C76.1384 84.285 76.0784 84.5916 76.0781 84.9011V117.972C76.0776 118.283 76.1384 118.591 76.2569 118.878C76.3755 119.166 76.5495 119.427 76.7691 119.647C76.9887 119.867 77.2494 120.041 77.5365 120.16C77.8236 120.279 78.1313 120.34 78.4421 120.34H111.513C112.097 120.34 112.66 120.124 113.095 119.734L123.911 110.006C124.267 109.686 124.517 109.266 124.629 108.801C124.741 108.336 124.709 107.848 124.538 107.401C124.366 106.954 124.064 106.57 123.669 106.299C123.275 106.029 122.808 105.884 122.33 105.884" fill="white"/>
</g>
<g filter="url(#filter2_d_570_9290)">
<circle cx="215.01" cy="96.9896" r="83.9896" fill="url(#paint2_linear_570_9290)"/>
<circle cx="215.01" cy="96.9896" r="83.9896" stroke="url(#paint3_linear_570_9290)" stroke-width="1.5" stroke-miterlimit="10"/>
</g>
<g filter="url(#filter3_d_570_9290)">
<path d="M215.422 148.707C244.214 148.707 267.554 125.367 267.554 96.5758C267.554 67.7844 244.214 44.4443 215.422 44.4443C186.631 44.4443 163.291 67.7844 163.291 96.5758C163.291 125.367 186.631 148.707 215.422 148.707Z" fill="#2E3148"/>
<path d="M215.423 126.825C232.129 126.825 245.672 113.282 245.672 96.5758C245.672 79.8697 232.129 66.3267 215.423 66.3267C198.717 66.3267 185.174 79.8697 185.174 96.5758C185.174 113.282 198.717 126.825 215.423 126.825Z" fill="#1B1E36"/>
<path d="M215.53 51.0952C209.903 51.0952 205.34 71.5057 205.34 96.6836C205.34 121.861 209.903 142.272 215.53 142.272C221.157 142.272 225.72 121.861 225.72 96.6836C225.72 71.5057 221.157 51.0952 215.53 51.0952ZM216.234 139.699C215.59 140.557 214.947 139.913 214.947 139.913C212.355 136.911 211.059 131.332 211.059 131.332C206.526 116.744 207.605 85.4223 207.605 85.4223C209.736 60.556 213.611 54.6819 214.93 53.3777C215.064 53.2446 215.242 53.1633 215.43 53.148C215.619 53.1328 215.807 53.1846 215.961 53.2943C217.875 54.6502 219.48 60.3204 219.48 60.3204C224.219 77.9121 223.789 94.4311 223.789 94.4311C224.219 108.805 221.415 124.895 221.415 124.895C219.256 137.123 216.234 139.699 216.234 139.699Z" fill="#6F7390"/>
<path d="M255.073 73.9964C252.271 69.1135 232.298 75.3134 210.448 87.8425C188.598 100.372 173.186 114.488 175.986 119.368C178.785 124.249 198.76 118.051 220.61 105.522C242.46 92.9931 257.872 78.8771 255.073 73.9964ZM178.57 118.698C177.498 118.563 177.74 117.682 177.74 117.682C179.056 113.94 183.243 110.04 183.243 110.04C193.646 98.8481 221.353 84.1975 221.353 84.1975C243.98 73.6703 251.008 74.1144 252.791 74.6053C252.974 74.6564 253.133 74.7706 253.24 74.9277C253.346 75.0848 253.394 75.2746 253.375 75.4636C253.16 77.7991 249.03 82.0113 249.03 82.0113C236.138 94.8811 221.595 102.731 221.595 102.731C209.341 110.259 193.989 115.83 193.989 115.83C182.308 120.039 178.571 118.698 178.571 118.698H178.57Z" fill="#6F7390"/>
<path d="M254.974 119.531C257.797 114.661 242.423 100.48 220.65 87.8571C198.877 75.2337 178.907 68.9571 176.086 73.8354C173.265 78.7136 188.636 92.8859 210.422 105.509C232.207 118.133 252.153 124.41 254.974 119.531ZM177.957 75.7171C177.54 74.7283 178.42 74.4901 178.42 74.4901C182.318 73.754 187.793 75.4314 187.793 75.4314C202.688 78.8233 229.248 95.4603 229.248 95.4603C249.697 109.77 252.833 116.073 253.303 117.862C253.351 118.045 253.333 118.24 253.251 118.411C253.169 118.582 253.03 118.719 252.857 118.797C250.725 119.774 245.014 118.319 245.014 118.319C227.411 113.599 213.333 104.952 213.333 104.952C200.685 98.1295 188.177 87.6323 188.177 87.6323C178.674 79.6303 177.96 75.7279 177.96 75.7279L177.957 75.7171Z" fill="#6F7390"/>
<path d="M215.423 101.939C218.385 101.939 220.786 99.5382 220.786 96.5762C220.786 93.6141 218.385 91.2129 215.423 91.2129C212.461 91.2129 210.06 93.6141 210.06 96.5762C210.06 99.5382 212.461 101.939 215.423 101.939Z" fill="#B7B9C8"/>
<path d="M237.412 79.1986C239.13 79.1986 240.522 77.7579 240.522 75.9807C240.522 74.2034 239.13 72.7627 237.412 72.7627C235.694 72.7627 234.301 74.2034 234.301 75.9807C234.301 77.7579 235.694 79.1986 237.412 79.1986Z" fill="#B7B9C8"/>
<path d="M186.354 90.1405C188.072 90.1405 189.465 88.6998 189.465 86.9226C189.465 85.1453 188.072 83.7046 186.354 83.7046C184.636 83.7046 183.243 85.1453 183.243 86.9226C183.243 88.6998 184.636 90.1405 186.354 90.1405Z" fill="#B7B9C8"/>
<path d="M209.094 129.614C210.812 129.614 212.205 128.173 212.205 126.396C212.205 124.619 210.812 123.178 209.094 123.178C207.376 123.178 205.983 124.619 205.983 126.396C205.983 128.173 207.376 129.614 209.094 129.614Z" fill="#B7B9C8"/>
</g>
<g clip-path="url(#clip0_570_9290)">
<mask id="mask0_570_9290" style="mask-type:alpha" maskUnits="userSpaceOnUse" x="158" y="39" width="115" height="115">
<path d="M215.5 154C247.256 154 273 128.256 273 96.5C273 64.7437 247.256 39 215.5 39C183.744 39 158 64.7437 158 96.5C158 128.256 183.744 154 215.5 154Z" fill="#D9D9D9"/>
</mask>
<g mask="url(#mask0_570_9290)">
<path d="M273 39H158V154H273V39Z" fill="#E50571"/>
<path d="M216 60.1665C211.536 60.1665 207.916 76.3589 207.916 96.3335C207.916 116.308 211.536 132.5 216 132.5C220.465 132.5 224.085 116.308 224.085 96.3335C224.085 76.3589 220.465 60.1665 216 60.1665ZM216.558 130.459C216.048 131.14 215.538 130.629 215.538 130.629C213.482 128.247 212.454 123.821 212.454 123.821C208.857 112.248 209.713 87.3996 209.713 87.3996C211.403 67.672 214.478 63.012 215.524 61.9773C215.631 61.8717 215.772 61.8072 215.921 61.7951C216.071 61.783 216.22 61.8241 216.343 61.9112C217.861 62.9867 219.134 67.4853 219.134 67.4853C222.893 81.4412 222.553 94.5466 222.553 94.5466C222.893 105.95 220.669 118.714 220.669 118.714C218.956 128.415 216.558 130.459 216.558 130.459Z" fill="white"/>
<path d="M247.372 78.3337C245.148 74.4601 229.303 79.3786 211.969 89.3185C194.635 99.258 182.408 110.456 184.629 114.329C186.85 118.201 202.697 113.284 220.031 103.344C237.365 93.4045 249.592 82.2058 247.372 78.3337ZM186.679 113.797C185.828 113.69 186.021 112.991 186.021 112.991C187.064 110.022 190.386 106.928 190.386 106.928C198.639 98.0495 220.62 86.4265 220.62 86.4265C238.57 78.075 244.146 78.4273 245.561 78.8167C245.706 78.8574 245.832 78.948 245.917 79.0725C246.002 79.1971 246.039 79.3478 246.024 79.4977C245.854 81.3506 242.577 84.6923 242.577 84.6923C232.35 94.9025 220.812 101.13 220.812 101.13C211.09 107.102 198.912 111.522 198.912 111.522C189.644 114.861 186.68 113.797 186.68 113.797H186.679Z" fill="white"/>
<path d="M247.294 114.459C249.534 110.596 237.337 99.346 220.063 89.3314C202.79 79.3167 186.947 74.3372 184.709 78.2074C182.471 82.0774 194.666 93.321 211.949 103.335C229.232 113.35 245.055 118.33 247.294 114.459ZM186.193 79.7001C185.862 78.9156 186.561 78.7268 186.561 78.7268C189.653 78.1428 193.997 79.4736 193.997 79.4736C205.814 82.1643 226.885 95.3629 226.885 95.3629C243.108 106.715 245.595 111.715 245.969 113.135C246.006 113.28 245.992 113.435 245.927 113.57C245.862 113.707 245.751 113.815 245.615 113.877C243.922 114.651 239.392 113.497 239.392 113.497C225.427 109.754 214.259 102.893 214.259 102.893C204.224 97.4805 194.302 89.1529 194.302 89.1529C186.762 82.8047 186.196 79.7089 186.196 79.7089L186.193 79.7001Z" fill="white"/>
<path d="M215.916 100.502C218.266 100.502 220.17 98.5971 220.17 96.2472C220.17 93.8973 218.266 91.9922 215.916 91.9922C213.566 91.9922 211.661 93.8973 211.661 96.2472C211.661 98.5971 213.566 100.502 215.916 100.502Z" fill="white"/>
<path d="M233.36 82.4608C234.723 82.4608 235.828 81.3179 235.828 79.9077C235.828 78.4979 234.723 77.355 233.36 77.355C231.997 77.355 230.893 78.4979 230.893 79.9077C230.893 81.3179 231.997 82.4608 233.36 82.4608Z" fill="white"/>
<path d="M192.855 91.1407C194.218 91.1407 195.323 89.9976 195.323 88.5877C195.323 87.1778 194.218 86.0347 192.855 86.0347C191.492 86.0347 190.387 87.1778 190.387 88.5877C190.387 89.9976 191.492 91.1407 192.855 91.1407Z" fill="white"/>
<path d="M210.895 122.457C212.258 122.457 213.363 121.314 213.363 119.904C213.363 118.494 212.258 117.351 210.895 117.351C209.532 117.351 208.427 118.494 208.427 119.904C208.427 121.314 209.532 122.457 210.895 122.457Z" fill="white"/>
</g>
</g>
<defs>
<filter id="filter0_d_570_9290" x="0.25" y="0.25" width="191.479" height="191.479" filterUnits="userSpaceOnUse" color-interpolation-filters="sRGB">
<feFlood flood-opacity="0" result="BackgroundImageFix"/>
<feColorMatrix in="SourceAlpha" type="matrix" values="0 0 0 0 0 0 0 0 0 0 0 0 0 0 0 0 0 0 127 0" result="hardAlpha"/>
<feOffset dx="-4" dy="-1"/>
<feGaussianBlur stdDeviation="5.5"/>
<feComposite in2="hardAlpha" operator="out"/>
<feColorMatrix type="matrix" values="0 0 0 0 0 0 0 0 0 0 0 0 0 0 0 0 0 0 0.25 0"/>
<feBlend mode="normal" in2="BackgroundImageFix" result="effect1_dropShadow_570_9290"/>
<feBlend mode="normal" in="SourceGraphic" in2="effect1_dropShadow_570_9290" result="shape"/>
</filter>
<filter id="filter1_d_570_9290" x="42.2725" y="42.4448" width="112.263" height="112.263" filterUnits="userSpaceOnUse" color-interpolation-filters="sRGB">
<feFlood flood-opacity="0" result="BackgroundImageFix"/>
<feColorMatrix in="SourceAlpha" type="matrix" values="0 0 0 0 0 0 0 0 0 0 0 0 0 0 0 0 0 0 127 0" result="hardAlpha"/>
<feOffset dx="-2" dy="2"/>
<feGaussianBlur stdDeviation="2"/>
<feComposite in2="hardAlpha" operator="out"/>
<feColorMatrix type="matrix" values="0 0 0 0 0 0 0 0 0 0 0 0 0 0 0 0 0 0 0.25 0"/>
<feBlend mode="normal" in2="BackgroundImageFix" result="effect1_dropShadow_570_9290"/>
<feBlend mode="normal" in="SourceGraphic" in2="effect1_dropShadow_570_9290" result="shape"/>
</filter>
<filter id="filter2_d_570_9290" x="115.271" y="0.25" width="191.479" height="191.479" filterUnits="userSpaceOnUse" color-interpolation-filters="sRGB">
<feFlood flood-opacity="0" result="BackgroundImageFix"/>
<feColorMatrix in="SourceAlpha" type="matrix" values="0 0 0 0 0 0 0 0 0 0 0 0 0 0 0 0 0 0 127 0" result="hardAlpha"/>
<feOffset dx="-4" dy="-1"/>
<feGaussianBlur stdDeviation="5.5"/>
<feComposite in2="hardAlpha" operator="out"/>
<feColorMatrix type="matrix" values="0 0 0 0 0 0 0 0 0 0 0 0 0 0 0 0 0 0 0.25 0"/>
<feBlend mode="normal" in2="BackgroundImageFix" result="effect1_dropShadow_570_9290"/>
<feBlend mode="normal" in="SourceGraphic" in2="effect1_dropShadow_570_9290" result="shape"/>
</filter>
<filter id="filter3_d_570_9290" x="157.291" y="42.4443" width="112.263" height="112.263" filterUnits="userSpaceOnUse" color-interpolation-filters="sRGB">
<feFlood flood-opacity="0" result="BackgroundImageFix"/>
<feColorMatrix in="SourceAlpha" type="matrix" values="0 0 0 0 0 0 0 0 0 0 0 0 0 0 0 0 0 0 127 0" result="hardAlpha"/>
<feOffset dx="-2" dy="2"/>
<feGaussianBlur stdDeviation="2"/>
<feComposite in2="hardAlpha" operator="out"/>
<feColorMatrix type="matrix" values="0 0 0 0 0 0 0 0 0 0 0 0 0 0 0 0 0 0 0.25 0"/>
<feBlend mode="normal" in2="BackgroundImageFix" result="effect1_dropShadow_570_9290"/>
<feBlend mode="normal" in="SourceGraphic" in2="effect1_dropShadow_570_9290" result="shape"/>
</filter>
<linearGradient id="paint0_linear_570_9290" x1="181.331" y1="161.202" x2="32.3842" y2="27.15" gradientUnits="userSpaceOnUse">
<stop stop-color="#041711"/>
<stop offset="1" stop-color="#07422F"/>
</linearGradient>
<linearGradient id="paint1_linear_570_9290" x1="99.9896" y1="13" x2="99.9896" y2="180.979" gradientUnits="userSpaceOnUse">
<stop stop-color="#8C9573"/>
<stop offset="1" stop-color="#46695D"/>
</linearGradient>
<linearGradient id="paint2_linear_570_9290" x1="296.352" y1="161.202" x2="147.405" y2="27.15" gradientUnits="userSpaceOnUse">
<stop stop-color="#041711"/>
<stop offset="1" stop-color="#07422F"/>
</linearGradient>
<linearGradient id="paint3_linear_570_9290" x1="215.01" y1="13" x2="215.01" y2="180.979" gradientUnits="userSpaceOnUse">
<stop stop-color="#8C9573"/>
<stop offset="1" stop-color="#46695D"/>
</linearGradient>
<clipPath id="clip0_570_9290">
<rect width="115" height="115" fill="white" transform="translate(158 39)"/>
</clipPath>
</defs>
</svg>
