<svg xmlns="http://www.w3.org/2000/svg" xmlns:xlink="http://www.w3.org/1999/xlink" width="192.528" height="28.578" viewBox="0 0 192.528 28.578">
  <defs>
    <linearGradient id="linear-gradient" y1="0.933" x2="1.05" gradientUnits="objectBoundingBox">
      <stop offset="0" stop-color="#52b788"/>
      <stop offset="1" stop-color="#e2f7e5"/>
    </linearGradient>
  </defs>
  <g id="commodo-logo" transform="translate(-41.327 -8.211)">
    <path id="Path_39" data-name="Path 39" d="M111.027,17.645a4.035,4.035,0,0,0-1.851.41,3.682,3.682,0,0,0-1.348,1.16,5.6,5.6,0,0,0-.82,1.84,9.6,9.6,0,0,0-.281,2.426,9.554,9.554,0,0,0,.445,3.105,3.968,3.968,0,0,0,1.406,1.957,4.162,4.162,0,0,0,2.449.668,9.484,9.484,0,0,0,2.086-.234,19.936,19.936,0,0,0,2.285-.668v3.047a10.985,10.985,0,0,1-2.238.668,13.19,13.19,0,0,1-2.472.211,7.982,7.982,0,0,1-4.36-1.09,6.56,6.56,0,0,1-2.519-3.07,12,12,0,0,1-.821-4.617,11.428,11.428,0,0,1,.528-3.562,8.068,8.068,0,0,1,1.546-2.8,6.837,6.837,0,0,1,2.52-1.828,8.656,8.656,0,0,1,3.445-.644,10.237,10.237,0,0,1,2.555.328,12.632,12.632,0,0,1,2.461.879l-1.172,2.953a19.474,19.474,0,0,0-1.933-.8A5.775,5.775,0,0,0,111.027,17.645ZM134.6,23.41a12.45,12.45,0,0,1-.492,3.609,7.615,7.615,0,0,1-1.5,2.789,6.521,6.521,0,0,1-2.531,1.8,10.936,10.936,0,0,1-7.266,0,6.624,6.624,0,0,1-2.543-1.8,7.7,7.7,0,0,1-1.488-2.8,12.494,12.494,0,0,1-.492-3.621,11.41,11.41,0,0,1,.867-4.629,6.625,6.625,0,0,1,2.695-3.07,8.86,8.86,0,0,1,4.618-1.09,8.708,8.708,0,0,1,4.582,1.09,6.579,6.579,0,0,1,2.672,3.07A11.406,11.406,0,0,1,134.6,23.41Zm-12.5,0a9.579,9.579,0,0,0,.445,3.094,4.073,4.073,0,0,0,1.418,1.992,4.153,4.153,0,0,0,2.484.691,4.2,4.2,0,0,0,2.508-.691,3.945,3.945,0,0,0,1.4-1.992,9.606,9.606,0,0,0,.445-3.094,7.709,7.709,0,0,0-1.008-4.242,3.659,3.659,0,0,0-3.316-1.547,4.177,4.177,0,0,0-2.508.7,4,4,0,0,0-1.418,1.992A9.513,9.513,0,0,0,122.1,23.41ZM145.41,32l-4.125-13.441h-.105q.023.48.07,1.453t.1,2.051q.048,1.09.047,1.969V32h-3.246V14.867H143.1l4.054,13.1h.071l4.3-13.1h4.946V32h-3.387V23.891q0-.808.023-1.863t.082-2q.048-.961.071-1.441h-.106L148.738,32Zm22.641,0-4.125-13.441h-.106q.024.48.071,1.453t.1,2.051q.046,1.09.047,1.969V32H160.8V14.867h4.945l4.055,13.1h.07l4.3-13.1h4.945V32h-3.386V23.891q0-.808.023-1.863t.082-2q.047-.961.07-1.441h-.1L171.379,32Zm30.937-8.59a12.45,12.45,0,0,1-.492,3.609,7.615,7.615,0,0,1-1.5,2.789,6.521,6.521,0,0,1-2.531,1.8,10.936,10.936,0,0,1-7.266,0,6.623,6.623,0,0,1-2.543-1.8,7.7,7.7,0,0,1-1.488-2.8,12.494,12.494,0,0,1-.492-3.621,11.41,11.41,0,0,1,.867-4.629,6.62,6.62,0,0,1,2.7-3.07,8.858,8.858,0,0,1,4.617-1.09,8.71,8.71,0,0,1,4.583,1.09,6.571,6.571,0,0,1,2.671,3.07A11.389,11.389,0,0,1,198.988,23.41Zm-12.5,0a9.577,9.577,0,0,0,.446,3.094,4.067,4.067,0,0,0,1.418,1.992,4.151,4.151,0,0,0,2.484.691,4.2,4.2,0,0,0,2.508-.691,3.944,3.944,0,0,0,1.394-1.992,9.577,9.577,0,0,0,.446-3.094,7.709,7.709,0,0,0-1.008-4.242,3.659,3.659,0,0,0-3.317-1.547,4.176,4.176,0,0,0-2.507.7,4,4,0,0,0-1.418,1.992A9.511,9.511,0,0,0,186.484,23.41Zm30.27-.141a9.625,9.625,0,0,1-1.113,4.84,7,7,0,0,1-3.2,2.918,11.933,11.933,0,0,1-5.05.973h-4.852V14.867h5.379a10.609,10.609,0,0,1,4.676.961,6.933,6.933,0,0,1,3.07,2.824A9.011,9.011,0,0,1,216.754,23.27Zm-3.774.094a7.466,7.466,0,0,0-.562-3.117,3.7,3.7,0,0,0-1.641-1.816,5.537,5.537,0,0,0-2.672-.586h-1.933V29h1.558a5.082,5.082,0,0,0,3.95-1.418A6.049,6.049,0,0,0,212.98,23.363Zm22.875.047a12.45,12.45,0,0,1-.492,3.609,7.615,7.615,0,0,1-1.5,2.789,6.521,6.521,0,0,1-2.531,1.8,10.936,10.936,0,0,1-7.266,0,6.624,6.624,0,0,1-2.543-1.8,7.7,7.7,0,0,1-1.488-2.8,12.494,12.494,0,0,1-.492-3.621,11.41,11.41,0,0,1,.867-4.629,6.625,6.625,0,0,1,2.695-3.07,8.86,8.86,0,0,1,4.618-1.09,8.708,8.708,0,0,1,4.582,1.09,6.579,6.579,0,0,1,2.672,3.07A11.406,11.406,0,0,1,235.855,23.41Zm-12.5,0A9.579,9.579,0,0,0,223.8,26.5a4.073,4.073,0,0,0,1.418,1.992,4.153,4.153,0,0,0,2.484.691,4.2,4.2,0,0,0,2.508-.691,3.945,3.945,0,0,0,1.4-1.992,9.606,9.606,0,0,0,.445-3.094,7.709,7.709,0,0,0-1.008-4.242,3.659,3.659,0,0,0-3.316-1.547,4.177,4.177,0,0,0-2.508.7,4,4,0,0,0-1.418,1.992A9.513,9.513,0,0,0,223.352,23.41Z" transform="translate(-2)" fill="#fff"/>
    <path id="Path_40" data-name="Path 40" d="M8.376,28.259c-.944-.746-.234-1.248.155-1.718,2.615-3.166,5.28-6.292,9.547-7.381,1.185-.3,1.089-.748.35-1.526-1.975-2.077-4.847-2.181-7.575-.192C7.174,20.122,4.636,23.753,2.2,27.479c-.363.556-.65,1.606-1.714.742-.382-.31-.7-.546-.314-1.14,3.009-4.609,6.012-9.221,11.042-12.014,3.2-1.775,6.056-1.318,8.564,1.327,2.49,2.622,4.958,5.263,7.433,7.9,1.973,2.1,3.747,2.376,6.181.78,4.063-2.667,6.771-6.561,9.471-10.44C45.911,10.26,48.507,5.623,51.107.99c.36-.642.582-1.4,1.673-.73.83.509.583.935.287,1.345l-1.454,2.5C48.182,10.191,44.626,16.2,40.068,21.564A31.085,31.085,0,0,1,34.2,26.823a5.376,5.376,0,0,1-3.665,1.1,5.019,5.019,0,0,1-4.288-1.9c-1.023-1.073-1.951-2.236-3-3.284a5.214,5.214,0,0,0-6.533-1.03c-2.815,1.377-4.809,3.631-6.691,6.013-.292.369-.511.858-.945.858A1.193,1.193,0,0,1,8.376,28.259ZM26.767,21.1c4.47-1.97,7.178-5.561,9.727-9.27C38.231,9.3,39.794,6.65,41.4,4.034c.341-.557.589-1.051,1.343-.578.629.394.89.763.421,1.548C40.105,10.127,37.09,15.277,32.708,19.46a20.38,20.38,0,0,1-2.942,2.292,3.3,3.3,0,0,1-1.472.716C27.842,22.467,27.5,22.04,26.767,21.1Zm-4.381-4.757c3.827-1.648,6.112-4.778,8.31-8,.467-.683.95-1.354,1.4-2.047.385-.587.838-.355,1.221-.074.339.249.859.451.413,1.1-2.393,3.5-4.673,7.1-8.273,9.576a3.234,3.234,0,0,1-1.649.72c-.522,0-1.017-.326-1.425-1.284Z" transform="translate(41.327 8.211)" fill="url(#linear-gradient)"/>
  </g>
</svg>
