<svg width="130" height="45" viewBox="0 0 130 45" fill="none" xmlns="http://www.w3.org/2000/svg">
<path d="M22.9587 0C19.8166 0 16.7081 0.689362 13.8539 2.01064C10.9996 3.33191 8.46679 5.2516 6.42804 7.64521C4.66273 9.42128 3.34354 11.5899 2.59041 13.9739C2.37454 14.7207 2.24982 15.4867 2.21624 16.2622L8.69705 18.766C9.04243 17.9378 9.31107 17.2628 9.5941 16.5973C10.424 14.6441 11.6664 12.892 13.2351 11.4559C15.9022 9 19.4089 7.65 23.0354 7.68351C25.0502 7.70266 27.0362 8.14309 28.8686 8.98085C30.7011 9.81862 32.3369 11.0346 33.6705 12.5426C34.0878 13.0548 34.4428 13.6197 34.721 14.2181C35.0089 14.0457 35.2823 13.859 35.5413 13.6532L37.0332 12.8106L35.8819 22.0787L27.8948 18.6894L27.348 18.4596L28.6336 17.6793L28.0675 17.0952C26.71 15.7404 24.8727 14.9793 22.9539 14.9745C20.9871 14.9984 19.1114 15.7979 17.7395 17.2005C16.3675 18.6032 15.6048 20.4989 15.6288 22.4617C15.6048 24.4245 16.3675 26.3202 17.7395 27.7229C19.1114 29.1255 20.9919 29.9298 22.9539 29.9489C23.6399 29.9489 24.3258 29.8484 24.9878 29.6521C26.3838 29.2404 27.6262 28.417 28.552 27.292C28.8255 27.0718 29.1756 26.9617 29.5258 26.9952C31.579 27.608 33.5506 28.4888 35.5557 29.2739C33.6129 34.0947 28.3985 37.2782 22.8004 37.3117C22.4262 37.3117 22.052 37.3021 21.6779 37.2782C15.9934 36.8856 10.6926 32.5963 9.29188 27.1771L11.1483 25.9516L1.77011 22.0883C1.55904 23.2181 1.35756 24.3144 1.15609 25.4011C0.772325 27.4644 0.398155 29.4894 0 31.6197L2.31218 30.7484C4.83063 36.3686 8.52915 40.0979 12.6402 42.3048C12.8081 42.3957 12.9712 42.4867 13.1439 42.5681C13.1775 42.5872 13.2207 42.6064 13.2542 42.6255C13.4653 42.7309 13.6764 42.8362 13.8875 42.9319C14.1225 43.0372 14.3576 43.1426 14.5974 43.2383L14.9524 43.3819C17.4996 44.4016 20.2148 44.9234 22.9587 44.9186C35.1048 44.9186 44.9531 34.8606 44.9531 22.4569C44.9531 10.0532 35.1048 0 22.9587 0Z" fill="url(#paint0_linear_256_8189)"/>
<path d="M65.816 24.2903C65.816 17.2148 55.5167 19.46 55.5167 15.434C55.5167 13.7967 56.6968 13.0164 58.2798 13.0739C60.0067 13.1026 61.0717 14.1366 61.158 15.4627H65.5905C65.3315 11.8388 62.5108 9.74194 58.3997 9.74194C54.2887 9.74194 51.3241 11.9249 51.3241 15.5489C51.2953 22.8255 61.6521 20.2068 61.6521 24.5489C61.6521 25.985 60.5296 26.9951 58.63 26.9951C56.7304 26.9951 55.6942 25.9324 55.5791 24.3191H51.2617C51.3193 28.1153 54.5429 30.2983 58.7115 30.2983C63.2879 30.2983 65.816 27.4499 65.816 24.2903ZM72.2008 30.0973H76.5757L79.4828 18.9717L82.3898 30.0973H86.7359L91.3938 14.1701H87.537L84.7211 26.2771L81.7278 14.1701H77.468L74.4171 26.3058L71.5964 14.1701H67.5093L72.2008 30.0973ZM92.5403 22.0739C92.5403 27.0478 95.7639 30.3558 99.7935 30.3558C100.82 30.3893 101.842 30.1691 102.763 29.7191C103.684 29.2691 104.485 28.5989 105.089 27.7659V30.0925H109.148V14.1701H105.089V16.4393C104.48 15.6255 103.684 14.9696 102.768 14.5292C101.851 14.0888 100.844 13.8781 99.827 13.9116C95.7687 13.9116 92.5451 17.1047 92.5451 22.0786L92.5403 22.0739ZM105.085 22.1313C105.085 25.1521 103.07 26.818 100.854 26.818C98.6374 26.818 96.6514 25.0946 96.6514 22.0739C96.6514 19.0531 98.6949 17.4446 100.854 17.4446C103.07 17.4446 105.085 19.1106 105.085 22.1313ZM117.116 16.468V14.1701H113.086V37.6898H117.116V27.8281C117.734 28.6324 118.536 29.2786 119.447 29.7191C120.363 30.1595 121.366 30.3797 122.378 30.3606C126.465 30.3606 129.655 27.0526 129.655 22.0786C129.655 17.1047 126.465 13.9116 122.378 13.9116C121.361 13.8877 120.349 14.1031 119.433 14.5483C118.516 14.9935 117.72 15.6542 117.111 16.468H117.116ZM125.544 22.0739C125.544 25.0946 123.5 26.818 121.313 26.818C119.126 26.818 117.111 25.1521 117.111 22.1313C117.111 19.1106 119.15 17.4446 121.308 17.4446C123.467 17.4446 125.539 19.0531 125.539 22.0739H125.544Z" fill="white"/>
<defs>
<linearGradient id="paint0_linear_256_8189" x1="4.7155" y1="33.5346" x2="42.2923" y2="10.6263" gradientUnits="userSpaceOnUse">
<stop stop-color="#EF3B45"/>
<stop offset="0.5" stop-color="#F15822"/>
<stop offset="1" stop-color="#EE225B"/>
</linearGradient>
</defs>
</svg>
