<svg width="14" height="16" viewBox="0 0 14 16" fill="none" xmlns="http://www.w3.org/2000/svg">
<path d="M10.1344 9.14122C10.7093 9.14122 11.2149 9.44377 11.5126 9.90331H6.99853C6.50987 9.90331 6.04122 10.104 5.69569 10.4613C5.35015 10.8186 5.15603 11.3032 5.15603 11.8085V14.8569C5.15603 14.9796 5.16709 15.1007 5.1892 15.2166C3.02316 15.0748 1.40398 14.264 0.376605 12.7726C0.131753 12.4175 0.000103911 11.9923 0 11.5563V10.8552C0 10.4006 0.17463 9.96465 0.485472 9.64322C0.796315 9.3218 1.21791 9.14122 1.65751 9.14122H10.1344ZM5.89303 0C6.37695 -7.45644e-09 6.85613 0.0985596 7.30321 0.290052C7.7503 0.481544 8.15653 0.762218 8.49871 1.11605C8.84089 1.46988 9.11233 1.88994 9.29751 2.35224C9.4827 2.81454 9.57802 3.31004 9.57802 3.81043C9.57802 4.31082 9.4827 4.80632 9.29751 5.26862C9.11233 5.73092 8.84089 6.15098 8.49871 6.50481C8.15653 6.85864 7.7503 7.13932 7.30321 7.33081C6.85613 7.5223 6.37695 7.62086 5.89303 7.62086C4.91571 7.62086 3.97842 7.21941 3.28735 6.50481C2.59628 5.79022 2.20804 4.82102 2.20804 3.81043C2.20804 2.79984 2.59628 1.83064 3.28735 1.11605C3.97842 0.401455 4.91571 0 5.89303 0ZM5.89303 11.8085C5.89303 11.5053 6.0095 11.2146 6.21682 11.0002C6.42414 10.7858 6.70533 10.6654 6.99853 10.6654H12.8945C13.1877 10.6654 13.4689 10.7858 13.6762 11.0002C13.8835 11.2146 14 11.5053 14 11.8085V14.8569C14 15.16 13.8835 15.4508 13.6762 15.6652C13.4689 15.8796 13.1877 16 12.8945 16H6.99853C6.70533 16 6.42414 15.8796 6.21682 15.6652C6.0095 15.4508 5.89303 15.16 5.89303 14.8569V11.8085ZM13.263 12.1896C13.0675 12.1896 12.8801 12.1093 12.7419 11.9664C12.6037 11.8234 12.526 11.6296 12.526 11.4275H11.789C11.789 11.8317 11.9443 12.2194 12.2207 12.5052C12.4972 12.7911 12.8721 12.9517 13.263 12.9517V12.1896ZM13.263 13.7137C12.8721 13.7137 12.4972 13.8743 12.2207 14.1602C11.9443 14.446 11.789 14.8337 11.789 15.2379H12.526C12.526 15.0358 12.6037 14.842 12.7419 14.699C12.8801 14.5561 13.0675 14.4758 13.263 14.4758V13.7137ZM7.36703 11.4275C7.36703 11.6296 7.28938 11.8234 7.15116 11.9664C7.01295 12.1093 6.82549 12.1896 6.63003 12.1896V12.9517C7.02096 12.9517 7.39587 12.7911 7.6723 12.5052C7.94873 12.2194 8.10402 11.8317 8.10402 11.4275H7.36703ZM8.10402 15.2379C8.10402 14.8337 7.94873 14.446 7.6723 14.1602C7.39587 13.8743 7.02096 13.7137 6.63003 13.7137V14.4758C6.82549 14.4758 7.01295 14.5561 7.15116 14.699C7.28938 14.842 7.36703 15.0358 7.36703 15.2379H8.10402ZM11.2363 13.3327C11.2363 12.979 11.1004 12.6398 10.8585 12.3897C10.6166 12.1396 10.2886 11.999 9.94652 11.999C9.60445 11.999 9.2764 12.1396 9.03453 12.3897C8.79265 12.6398 8.65677 12.979 8.65677 13.3327C8.65677 13.6864 8.79265 14.0256 9.03453 14.2757C9.2764 14.5258 9.60445 14.6663 9.94652 14.6663C10.2886 14.6663 10.6166 14.5258 10.8585 14.2757C11.1004 14.0256 11.2363 13.6864 11.2363 13.3327Z" fill="#0AB754"/>
</svg>
