<svg width="16" height="15" viewBox="0 0 16 15" fill="none" xmlns="http://www.w3.org/2000/svg">
<path d="M8.70751 0.388084C8.43073 -0.129361 7.56997 -0.129361 7.29318 0.388084L0.0935435 13.8385C0.0287335 13.9591 -0.00339642 14.0942 0.000284138 14.2307C0.00396469 14.3672 0.0433302 14.5004 0.114545 14.6173C0.18576 14.7343 0.286396 14.831 0.406646 14.8981C0.526896 14.9652 0.66266 15.0003 0.800708 15H15.2C15.3379 15.0003 15.4736 14.9652 15.5938 14.8982C15.714 14.8312 15.8145 14.7345 15.8857 14.6176C15.9568 14.5007 15.9961 14.3675 15.9997 14.2311C16.0034 14.0947 15.9712 13.9597 15.9064 13.8393L8.70751 0.388084ZM8.80031 12.6264H7.20039V11.044H8.80031V12.6264ZM7.20039 9.46159V5.50558H8.80031L8.80111 9.46159H7.20039Z" fill="#BB3431"/>
</svg>
