<svg width="225" height="225" viewBox="0 0 225 225" fill="none" xmlns="http://www.w3.org/2000/svg">
<g opacity="0.1">
<circle cx="112.5" cy="112.5" r="112.5" fill="white"/>
<circle cx="112.5" cy="112.5" r="112.5" fill="url(#paint0_linear_549_6907)"/>
</g>
<g opacity="0.3">
<circle cx="112" cy="113" r="95" fill="white"/>
<circle cx="112" cy="113" r="95" fill="url(#paint1_linear_549_6907)"/>
</g>
<circle cx="112" cy="112" r="75" fill="white"/>
<circle cx="112" cy="112" r="75" fill="url(#paint2_linear_549_6907)"/>
<path d="M132.817 104.799C132.694 104.584 132.516 104.404 132.301 104.279C132.086 104.154 131.841 104.088 131.592 104.088H113.145L116.238 80.5575C116.271 80.2426 116.197 79.9257 116.027 79.6579C115.857 79.3901 115.602 79.1869 115.302 79.0811C115.003 78.9753 114.676 78.973 114.375 79.0746C114.074 79.1761 113.815 79.3757 113.642 79.6411L91.2086 118.779C91.0774 118.991 91.0055 119.235 91.0003 119.484C90.9951 119.734 91.0568 119.98 91.179 120.197C91.3012 120.415 91.4795 120.596 91.6956 120.723C91.9116 120.849 92.1575 120.915 92.408 120.916H110.579L108.128 144.482C108.104 144.796 108.186 145.109 108.361 145.371C108.536 145.633 108.794 145.829 109.094 145.928C109.394 146.027 109.719 146.024 110.017 145.918C110.314 145.812 110.568 145.61 110.737 145.345L132.8 106.211C132.928 105.998 132.997 105.756 133 105.508C133.003 105.259 132.94 105.015 132.817 104.799Z" fill="white"/>
<defs>
<linearGradient id="paint0_linear_549_6907" x1="112.5" y1="0" x2="112.5" y2="225" gradientUnits="userSpaceOnUse">
<stop stop-color="#52B788"/>
<stop offset="0.96875" stop-color="#52B888"/>
</linearGradient>
<linearGradient id="paint1_linear_549_6907" x1="112" y1="18" x2="112" y2="208" gradientUnits="userSpaceOnUse">
<stop stop-color="#0CCC59"/>
<stop offset="0.96875" stop-color="#52B888"/>
</linearGradient>
<linearGradient id="paint2_linear_549_6907" x1="112" y1="37" x2="112" y2="187" gradientUnits="userSpaceOnUse">
<stop stop-color="#49CD7E"/>
<stop offset="0.96875" stop-color="#0CB83C"/>
</linearGradient>
</defs>
</svg>
