<svg width="126" height="45" viewBox="0 0 126 45" fill="none" xmlns="http://www.w3.org/2000/svg">
<path d="M4.88242 40.3097C3.38528 39.1904 2.16896 37.7383 1.32953 36.068C0.490099 34.3983 0.0505978 32.5554 0.0457508 30.6863C-0.0497065 25.4346 0.0328913 20.1796 0.0388264 14.9255C0.0417941 12.4466 1.34011 10.7224 3.26904 9.39741C7.3742 6.57423 14.5693 6.60687 18.6508 9.45132C20.8127 10.9568 21.9691 12.9887 21.8974 15.6867C21.8582 17.1665 21.8904 18.6483 21.8904 20.192H11.7452V13.5056H7.666V14.7044C7.666 19.3249 7.666 23.946 7.666 28.5669C7.666 34.5343 10.5003 38.5578 16.1184 40.5204C19.8813 41.839 23.9524 42.0017 27.8082 40.9878C28.1308 40.9066 28.4517 40.8186 28.7757 40.7459C28.8365 40.7326 28.9102 40.7781 29.0883 40.8265C27.5125 42.3089 25.588 43.3682 23.4934 43.9069C21.5001 44.4697 19.4407 44.7616 17.3698 44.7744C12.9165 44.7744 8.73907 43.3124 4.88242 40.3097ZM14.9161 35.2816C13.8943 34.6223 13.0628 33.7068 12.5049 32.6261C11.947 31.5454 11.6824 30.3376 11.7363 29.1229C11.7724 27.6391 11.7433 26.1553 11.7433 24.5923H21.8686V31.2635H25.9664V30.1022C25.9664 25.4065 25.8788 20.7093 25.9891 16.0166C26.1217 10.4563 23.386 6.85912 18.5647 4.69872C14.4299 2.84447 10.1125 2.72775 5.74401 3.80844C5.39235 3.89549 5.03971 3.97562 4.36211 4.13587C5.79431 2.71419 7.55391 1.66624 9.4864 1.0842C16.4612 -1.08016 22.9241 -0.0271645 28.7302 4.45141C30.2322 5.56436 31.454 7.01299 32.2972 8.68171C33.1405 10.3505 33.5822 12.1932 33.5872 14.063C33.6831 19.3521 33.5975 24.6443 33.5872 29.9355C33.5827 32.3764 32.274 34.0585 30.39 35.3667C28.3543 36.7802 25.5494 37.4831 22.7401 37.4835C19.8635 37.4841 16.982 36.7486 14.9161 35.2816Z" fill="#665AA6"/>
<path d="M51.8549 29.9232H48.7207V23.5231H42.8478V29.9232H39.7031V15.0939H42.8478V20.9062H48.7207V15.0939H51.8549V29.9232ZM64.6857 29.9232L63.6105 26.3932H58.2046L57.1293 29.9232H53.7413L58.9752 15.033H62.8197L68.0738 29.9232H64.6857ZM62.8602 23.756L61.785 20.3077C61.7172 20.0777 61.6262 19.7834 61.511 19.425C61.4026 19.0599 61.2913 18.6913 61.1761 18.3194C61.0683 17.9408 60.9803 17.6128 60.9124 17.3355C60.8452 17.6128 60.7503 17.9577 60.6286 18.3701C60.5138 18.7759 60.4021 19.1613 60.2937 19.5264C60.1859 19.8917 60.1078 20.1519 60.0608 20.3077L58.9954 23.756H62.8602ZM74.2711 15.0939C75.6169 15.0939 76.7259 15.2562 77.5985 15.5808C78.4772 15.9054 79.1292 16.3956 79.5555 17.0516C79.9817 17.7075 80.1948 18.5359 80.1948 19.5366C80.1948 20.2127 80.0662 20.8042 79.809 21.3117C79.5525 21.8187 79.2137 22.248 78.795 22.5997C78.3755 22.9513 77.9223 23.2386 77.4355 23.4622L81.7973 29.9232H78.3082L74.7681 24.2328H73.0944V29.9232H69.9502V15.0939H74.2711ZM74.048 17.6703H73.0944V21.6767H74.1089C75.1503 21.6767 75.8936 21.5046 76.3408 21.1594C76.7932 20.8078 77.0197 20.2938 77.0197 19.6177C77.0197 18.9145 76.776 18.4141 76.2892 18.1166C75.8091 17.819 75.0621 17.6703 74.048 17.6703ZM83.6638 15.0939H88.2783C90.2532 15.0939 91.748 15.3712 92.762 15.9257C93.7767 16.4801 94.2837 17.4539 94.2837 18.8469C94.2837 19.4081 94.1917 19.9155 94.0093 20.3685C93.8336 20.8216 93.5771 21.1935 93.2391 21.4843C92.9003 21.7746 92.4883 21.9641 92.0015 22.0521V22.1535C92.495 22.2549 92.9415 22.431 93.34 22.6808C93.7386 22.9246 94.0571 23.2827 94.2934 23.756C94.5372 24.2229 94.6591 24.8446 94.6591 25.6226C94.6591 26.5218 94.4385 27.2929 93.9996 27.9349C93.5599 28.5773 92.931 29.0709 92.1129 29.4162C91.3016 29.754 90.3347 29.9232 89.2115 29.9232H83.6638V15.0939ZM86.8082 20.967H88.6335C89.5465 20.967 90.1792 20.8245 90.5306 20.5406C90.8821 20.2498 91.0578 19.824 91.0578 19.2628C91.0578 18.6948 90.8484 18.289 90.4289 18.0456C90.0169 17.7954 89.3611 17.6703 88.4608 17.6703H86.8082V20.967ZM86.8082 23.4622V27.3265H88.8571C89.8038 27.3265 90.4626 27.144 90.835 26.779C91.2066 26.4135 91.3928 25.9233 91.3928 25.308C91.3928 24.943 91.3113 24.6216 91.149 24.3446C90.9868 24.0671 90.7131 23.851 90.328 23.6952C89.9488 23.5399 89.4254 23.4622 88.7554 23.4622H86.8082ZM111.08 22.4884C111.08 23.6309 110.938 24.6725 110.655 25.6122C110.37 26.5455 109.938 27.3503 109.357 28.0264C108.781 28.7025 108.051 29.2233 107.165 29.5883C106.28 29.9469 105.231 30.126 104.021 30.126C102.811 30.126 101.762 29.9469 100.876 29.5883C99.9908 29.2233 99.2572 28.7025 98.6754 28.0264C98.1011 27.3503 97.6712 26.5421 97.387 25.6024C97.1028 24.6621 96.9615 23.6175 96.9615 22.4681C96.9615 20.9329 97.2113 19.5975 97.7123 18.4614C98.2193 17.3186 98.9962 16.4328 100.045 15.8039C101.093 15.175 102.425 14.8606 104.041 14.8606C105.65 14.8606 106.972 15.175 108.007 15.8039C109.049 16.4328 109.82 17.3186 110.32 18.4614C110.827 19.6044 111.08 20.9467 111.08 22.4884ZM100.258 22.4884C100.258 23.5231 100.386 24.4153 100.643 25.1661C100.907 25.91 101.316 26.4847 101.871 26.8903C102.425 27.2894 103.142 27.4888 104.021 27.4888C104.913 27.4888 105.637 27.2894 106.191 26.8903C106.746 26.4847 107.148 25.91 107.399 25.1661C107.655 24.4153 107.784 23.5231 107.784 22.4884C107.784 20.9329 107.493 19.7092 106.911 18.8164C106.33 17.9239 105.373 17.4775 104.041 17.4775C103.155 17.4775 102.432 17.6804 101.871 18.0861C101.316 18.4851 100.907 19.0599 100.643 19.8106C100.386 20.5545 100.258 21.4467 100.258 22.4884ZM118.474 15.0939C119.82 15.0939 120.929 15.2562 121.802 15.5808C122.681 15.9054 123.333 16.3956 123.76 17.0516C124.185 17.7075 124.398 18.5359 124.398 19.5366C124.398 20.2127 124.27 20.8042 124.012 21.3117C123.756 21.8187 123.418 22.248 122.999 22.5997C122.58 22.9513 122.127 23.2386 121.64 23.4622L126.001 29.9232H122.512L118.972 24.2328H117.298V29.9232H114.154V15.0939H118.474ZM118.252 17.6703H117.298V21.6767H118.313C119.354 21.6767 120.098 21.5046 120.544 21.1594C120.997 20.8078 121.224 20.2938 121.224 19.6177C121.224 18.9145 120.98 18.4141 120.493 18.1166C120.013 17.819 119.266 17.6703 118.252 17.6703Z" fill="white"/>
</svg>
