<svg width="19" height="15" viewBox="0 0 19 15" fill="none" xmlns="http://www.w3.org/2000/svg">
<path d="M13.7031 14.5078H4.37211C4.24363 14.5078 4.12042 14.4562 4.02958 14.3642C3.93873 14.2723 3.8877 14.1476 3.8877 14.0176C3.8877 13.8875 3.93873 13.7628 4.02958 13.6709C4.12042 13.5789 4.24363 13.5273 4.37211 13.5273H13.5088L17.8818 9.24837C17.9296 9.20035 17.9672 9.14297 17.9923 9.07974C18.0174 9.01652 18.0294 8.94877 18.0278 8.88065C18.0228 8.73231 17.962 8.59151 17.8576 8.48721C17.806 8.43869 17.7442 8.40249 17.677 8.38128C17.6097 8.36007 17.5386 8.35438 17.4689 8.36464H17.4204C17.3494 8.36687 17.2811 8.39272 17.2261 8.43818L13.12 10.9956C13.0475 11.0421 12.9637 11.0675 12.8778 11.0691H7.28889C7.16042 11.0691 7.0372 11.0175 6.94636 10.9255C6.85551 10.8336 6.80448 10.7089 6.80448 10.5789C6.80448 10.4488 6.85551 10.3241 6.94636 10.2322C7.0372 10.1402 7.16042 10.0886 7.28889 10.0886H12.7313L16.7162 7.60103C16.8898 7.50301 17.0789 7.43643 17.2751 7.4043H17.3235C17.5326 7.37761 17.7449 7.39662 17.9461 7.46006C18.1473 7.52349 18.3327 7.62987 18.4898 7.77201C18.6483 7.91399 18.7756 8.08803 18.8635 8.28289C18.9514 8.47776 18.998 8.68912 19.0002 8.90333C18.9931 9.31148 18.8273 9.70033 18.5388 9.98562L14.0434 14.3608C13.9992 14.4069 13.9463 14.4436 13.8879 14.4689C13.8295 14.4941 13.7667 14.5074 13.7031 14.5078Z" fill="#0AB754"/>
<path d="M12.8529 10.8198C12.7474 10.8214 12.6446 10.7868 12.561 10.7217C12.5089 10.6839 12.4648 10.6357 12.4315 10.5802C12.3982 10.5246 12.3764 10.4628 12.3673 10.3985C12.3583 10.3342 12.3622 10.2687 12.3788 10.206C12.3955 10.1432 12.4245 10.0846 12.4641 10.0335C12.547 9.92197 12.5977 9.78937 12.6105 9.65044C12.6234 9.51151 12.5978 9.3717 12.5368 9.24658C12.4771 9.12174 12.384 9.01637 12.2681 8.94248C12.1522 8.86858 12.018 8.82913 11.881 8.82862L4.3726 8.85313C4.24412 8.85313 4.12091 8.80148 4.03007 8.70953C3.93922 8.61758 3.88818 8.49288 3.88818 8.36285C3.88818 8.23282 3.93922 8.10812 4.03007 8.01617C4.12091 7.92423 4.24412 7.87257 4.3726 7.87257H11.8804C12.1987 7.87134 12.5109 7.96059 12.7816 8.13015C13.0522 8.29972 13.2703 8.54279 13.4112 8.83168C13.5526 9.11677 13.6116 9.43646 13.5815 9.754C13.5514 10.0715 13.4334 10.374 13.241 10.6267C13.1944 10.6858 13.1354 10.7338 13.0683 10.7672C13.0012 10.8006 12.9276 10.8185 12.8529 10.8198Z" fill="#0AB754"/>
<path d="M4.37306 14.9998H0.484415C0.35594 14.9998 0.232727 14.9482 0.141882 14.8562C0.0510366 14.7643 0 14.6396 0 14.5096V7.62114C0 7.49111 0.0510366 7.3664 0.141882 7.27446C0.232727 7.18251 0.35594 7.13086 0.484415 7.13086H4.37184C4.50032 7.13086 4.62353 7.18251 4.71438 7.27446C4.80522 7.3664 4.85626 7.49111 4.85626 7.62114V14.5077C4.8565 14.5722 4.84418 14.636 4.82002 14.6956C4.79586 14.7552 4.76033 14.8095 4.71545 14.8552C4.67057 14.9009 4.61723 14.9372 4.55848 14.962C4.49973 14.9868 4.43672 14.9997 4.37306 14.9998ZM0.971857 14.0193H3.88743V8.11142H0.96883L0.971857 14.0193Z" fill="#0AB754"/>
<path d="M8.50307 6.88241H6.55814C6.42967 6.88241 6.30646 6.83076 6.21561 6.73881C6.12477 6.64687 6.07373 6.52216 6.07373 6.39213C6.07373 6.2621 6.12477 6.1374 6.21561 6.04545C6.30646 5.95351 6.42967 5.90186 6.55814 5.90186H8.50186C8.63033 5.90186 8.75355 5.95351 8.84439 6.04545C8.93524 6.1374 8.98628 6.2621 8.98628 6.39213C8.98628 6.52216 8.93524 6.64687 8.84439 6.73881C8.75355 6.83076 8.63033 6.88241 8.50186 6.88241H8.50307Z" fill="#0AB754"/>
<path d="M8.50307 4.91513H6.55814C6.42967 4.91513 6.30646 4.86347 6.21561 4.77153C6.12477 4.67958 6.07373 4.55488 6.07373 4.42485C6.07373 4.29482 6.12477 4.17011 6.21561 4.07817C6.30646 3.98622 6.42967 3.93457 6.55814 3.93457H8.50186C8.63033 3.93457 8.75355 3.98622 8.84439 4.07817C8.93524 4.17011 8.98628 4.29482 8.98628 4.42485C8.98628 4.55488 8.93524 4.67958 8.84439 4.77153C8.75355 4.86347 8.63033 4.91513 8.50186 4.91513H8.50307Z" fill="#0AB754"/>
<path d="M12.3908 6.88241H10.4458C10.3174 6.88241 10.1942 6.83076 10.1033 6.73881C10.0125 6.64687 9.96143 6.52216 9.96143 6.39213C9.96143 6.2621 10.0125 6.1374 10.1033 6.04545C10.1942 5.95351 10.3174 5.90186 10.4458 5.90186H12.3896C12.518 5.90186 12.6412 5.95351 12.7321 6.04545C12.8229 6.1374 12.874 6.2621 12.874 6.39213C12.874 6.52216 12.8229 6.64687 12.7321 6.73881C12.6412 6.83076 12.518 6.88241 12.3896 6.88241H12.3908Z" fill="#0AB754"/>
<path d="M12.3908 4.91513H10.4458C10.3174 4.91513 10.1942 4.86347 10.1033 4.77153C10.0125 4.67958 9.96143 4.55488 9.96143 4.42485C9.96143 4.29482 10.0125 4.17011 10.1033 4.07817C10.1942 3.98622 10.3174 3.93457 10.4458 3.93457H12.3896C12.518 3.93457 12.6412 3.98622 12.7321 4.07817C12.8229 4.17011 12.874 4.29482 12.874 4.42485C12.874 4.55488 12.8229 4.67958 12.7321 4.77153C12.6412 4.86347 12.518 4.91513 12.3896 4.91513H12.3908Z" fill="#0AB754"/>
<path d="M12.3908 2.95091H10.4459C10.317 2.95091 10.1934 2.89909 10.1023 2.80686C10.0112 2.71463 9.95996 2.58953 9.95996 2.4591C9.95996 2.32866 10.0112 2.20357 10.1023 2.11133C10.1934 2.0191 10.317 1.96729 10.4459 1.96729H12.3896C12.5185 1.96729 12.6421 2.0191 12.7332 2.11133C12.8243 2.20357 12.8755 2.32866 12.8755 2.4591C12.8755 2.58953 12.8243 2.71463 12.7332 2.80686C12.6421 2.89909 12.5185 2.95091 12.3896 2.95091H12.3908Z" fill="#0AB754"/>
<path d="M12.3908 0.980559H10.4458C10.3174 0.980559 10.1942 0.928904 10.1033 0.836959C10.0125 0.745014 9.96143 0.620309 9.96143 0.490279C9.96143 0.360249 10.0125 0.235544 10.1033 0.143599C10.1942 0.0516539 10.3174 0 10.4458 0H12.3896C12.518 0 12.6412 0.0516539 12.7321 0.143599C12.8229 0.235544 12.874 0.360249 12.874 0.490279C12.874 0.620309 12.8229 0.745014 12.7321 0.836959C12.6412 0.928904 12.518 0.980559 12.3896 0.980559H12.3908Z" fill="#0AB754"/>
<path d="M16.2785 6.88241H14.3335C14.2051 6.88241 14.0818 6.83076 13.991 6.73881C13.9002 6.64687 13.8491 6.52216 13.8491 6.39213C13.8491 6.2621 13.9002 6.1374 13.991 6.04545C14.0818 5.95351 14.2051 5.90186 14.3335 5.90186H16.2773C16.4057 5.90186 16.5289 5.95351 16.6198 6.04545C16.7106 6.1374 16.7617 6.2621 16.7617 6.39213C16.7617 6.52216 16.7106 6.64687 16.6198 6.73881C16.5289 6.83076 16.4057 6.88241 16.2773 6.88241H16.2785Z" fill="#0AB754"/>
<path d="M16.2785 4.91513H14.3335C14.2051 4.91513 14.0818 4.86347 13.991 4.77153C13.9002 4.67958 13.8491 4.55488 13.8491 4.42485C13.8491 4.29482 13.9002 4.17011 13.991 4.07817C14.0818 3.98622 14.2051 3.93457 14.3335 3.93457H16.2773C16.4057 3.93457 16.5289 3.98622 16.6198 4.07817C16.7106 4.17011 16.7617 4.29482 16.7617 4.42485C16.7617 4.55488 16.7106 4.67958 16.6198 4.77153C16.5289 4.86347 16.4057 4.91513 16.2773 4.91513H16.2785Z" fill="#0AB754"/>
<path d="M16.278 2.95091H14.3331C14.2042 2.95091 14.0806 2.89909 13.9895 2.80686C13.8984 2.71463 13.8472 2.58953 13.8472 2.4591C13.8472 2.32866 13.8984 2.20357 13.9895 2.11133C14.0806 2.0191 14.2042 1.96729 14.3331 1.96729H16.2768C16.4057 1.96729 16.5293 2.0191 16.6204 2.11133C16.7115 2.20357 16.7627 2.32866 16.7627 2.4591C16.7627 2.58953 16.7115 2.71463 16.6204 2.80686C16.5293 2.89909 16.4057 2.95091 16.2768 2.95091H16.278Z" fill="#0AB754"/>
<path d="M2.42777 12.0488C2.33197 12.0488 2.23831 12.0776 2.15865 12.1315C2.07899 12.1853 2.0169 12.2619 1.98023 12.3515C1.94357 12.4411 1.93398 12.5397 1.95267 12.6348C1.97136 12.7299 2.01749 12.8172 2.08524 12.8858C2.15299 12.9544 2.2393 13.001 2.33327 13.02C2.42724 13.0389 2.52464 13.0292 2.61315 12.9921C2.70167 12.955 2.77732 12.8921 2.83055 12.8115C2.88378 12.7309 2.91219 12.6361 2.91219 12.5391C2.91219 12.4091 2.86115 12.2844 2.77031 12.1924C2.67946 12.1005 2.55625 12.0488 2.42777 12.0488Z" fill="#0AB754"/>
</svg>
