<svg width="30" height="30" viewBox="0 0 30 30" fill="none" xmlns="http://www.w3.org/2000/svg">
<path fill-rule="evenodd" clip-rule="evenodd" d="M15 3.91309C15.5567 3.91309 16.0079 4.36434 16.0079 4.92099V6.9368C16.0079 7.49345 15.5567 7.94471 15 7.94471C14.4434 7.94471 13.9921 7.49345 13.9921 6.9368V4.92099C13.9921 4.36434 14.4434 3.91309 15 3.91309ZM9.45655 5.39872C9.93862 5.12039 10.5551 5.28555 10.8334 5.76762L11.8413 7.51331C12.1196 7.99538 11.9545 8.61181 11.4724 8.89014C10.9903 9.16847 10.3739 9.00331 10.0956 8.52124L9.08765 6.77555C8.80932 6.29348 8.97448 5.67705 9.45655 5.39872ZM20.5435 5.39872C21.0256 5.67705 21.1908 6.29348 20.9124 6.77555L19.9045 8.52124C19.6262 9.00331 19.0098 9.16847 18.5277 8.89014C18.0456 8.61181 17.8805 7.99538 18.1588 7.51331L19.1667 5.76762C19.445 5.28555 20.0615 5.12039 20.5435 5.39872ZM5.39872 9.45655C5.67705 8.97448 6.29348 8.80932 6.77555 9.08765L8.52124 10.0956C9.00331 10.3739 9.16847 10.9903 8.89014 11.4724C8.61181 11.9545 7.99538 12.1196 7.51331 11.8413L5.76762 10.8334C5.28555 10.5551 5.12039 9.93862 5.39872 9.45655ZM24.6014 9.45655C24.8797 9.93862 24.7145 10.5551 24.2325 10.8334L22.4868 11.8413C22.0047 12.1196 21.3883 11.9545 21.1099 11.4724C20.8316 10.9903 20.9968 10.3739 21.4788 10.0956L23.2245 9.08765C23.7066 8.80932 24.323 8.97448 24.6014 9.45655ZM3.91309 15C3.91309 14.4434 4.36434 13.9921 4.92099 13.9921H6.9368C7.49345 13.9921 7.94471 14.4434 7.94471 15C7.94471 15.5567 7.49345 16.0079 6.9368 16.0079H4.92099C4.36434 16.0079 3.91309 15.5567 3.91309 15ZM22.0554 15C22.0554 14.4434 22.5066 13.9921 23.0633 13.9921H25.0791C25.6357 13.9921 26.087 14.4434 26.087 15C26.087 15.5567 25.6357 16.0079 25.0791 16.0079H23.0633C22.5066 16.0079 22.0554 15.5567 22.0554 15ZM8.89014 18.5277C9.16847 19.0098 9.00331 19.6262 8.52124 19.9045L6.77555 20.9124C6.29348 21.1908 5.67705 21.0256 5.39872 20.5435C5.12039 20.0615 5.28555 19.445 5.76762 19.1667L7.51331 18.1588C7.99538 17.8805 8.61181 18.0456 8.89014 18.5277ZM21.1099 18.5277C21.3883 18.0456 22.0047 17.8805 22.4868 18.1588L24.2325 19.1667C24.7145 19.445 24.8797 20.0615 24.6014 20.5435C24.323 21.0256 23.7066 21.1908 23.2245 20.9124L21.4788 19.9045C20.9968 19.6262 20.8316 19.0098 21.1099 18.5277ZM11.4724 21.1099C11.9545 21.3883 12.1196 22.0047 11.8413 22.4868L10.8334 24.2325C10.5551 24.7145 9.93862 24.8797 9.45655 24.6014C8.97448 24.323 8.80932 23.7066 9.08765 23.2245L10.0956 21.4788C10.3739 20.9968 10.9903 20.8316 11.4724 21.1099ZM18.5277 21.1099C19.0098 20.8316 19.6262 20.9968 19.9045 21.4788L20.9124 23.2245C21.1908 23.7066 21.0256 24.323 20.5435 24.6014C20.0615 24.8797 19.445 24.7145 19.1667 24.2325L18.1588 22.4868C17.8805 22.0047 18.0456 21.3883 18.5277 21.1099ZM15 22.0554C15.5567 22.0554 16.0079 22.5066 16.0079 23.0633V25.0791C16.0079 25.6357 15.5567 26.087 15 26.087C14.4434 26.087 13.9921 25.6357 13.9921 25.0791V23.0633C13.9921 22.5066 14.4434 22.0554 15 22.0554Z" fill="#D8F3DC"/>
</svg>
